<?xml version="1.0" encoding="utf-8"?>
<!-- Generator: Adobe Illustrator 21.1.0, SVG Export Plug-In . SVG Version: 6.00 Build 0)  -->
<svg version="1.1" id="Layer_1" xmlns="http://www.w3.org/2000/svg" xmlns:xlink="http://www.w3.org/1999/xlink" x="0px" y="0px"
	 viewBox="0 0 265.6 371.8" style="enable-background:new 0 0 265.6 371.8;" xml:space="preserve">
<style type="text/css">
	.st0{fill:#4FC3EC;}
	.st1{fill:#D7AED1;}
	.st2{fill:none;stroke:#D7AED1;stroke-miterlimit:10;}
	.st3{fill:#27AAE1;}
	.st4{fill:none;stroke:#26A9E1;stroke-miterlimit:10;}
	.st5{fill:#26A9E1;}
</style>
<g>
	<path class="st0" d="M27.3,58.8c0,7.8,0.7,14.9,0.7,20.4c0,3-1.8,4.1-4,4.1c-3.6,0-8.5-2.9-8.9-6.2c-1-7.4-1.3-17.6-1.3-27.9
		c0-9.6,0.4-19.4,0.7-27.3c-3.9,0-8.6-6.5-8.6-8.6C6,10.8,17.4,7.5,31,7.5c12,0,24.8,3.5,24.8,18.3c0,0.6-0.1,1.2-0.1,1.9
		C54.7,43.3,37.5,55.7,27.3,58.8z M29,20.7c-0.7,8.1-1.2,15.7-1.4,25.9c5.2-2.4,16.7-11.5,17.2-22.7C44.8,19.9,34.5,20.7,29,20.7z"
		/>
	<path class="st0" d="M98.2,82.8c-2.7,0-5.1-0.5-6.2-1.4c-0.6-0.6-1.8-5.6-3.5-13.7c-4.3-0.9-10.4-1.8-15.5-1.8
		c-1.9,0-3.6,0.1-5.3,0.2c-2.1,6.6-3.7,12.2-4.2,15.1c-0.5,2.3-3.5,3.2-6.5,3.2c-3.8,0-6.6-1.2-6.6-3.2c0-2.1,1.2-7.3,3.1-13.9
		c-1.5,0-7-4.8-7-9.1c0-2.9,5.5-3.2,10.8-3.7c6.4-20,15.4-47.3,18.9-48.9C77,5.2,77.8,5,78.6,5c2.8,0,5.2,2.1,7.9,2.1
		c0.6,0,1.2-0.1,1.8-0.1c1,0,1.8,0.2,2.1,0.6c3,2.9,16.7,69.9,16.7,72.6C107.2,81.9,102.4,82.8,98.2,82.8z M81.7,29.7
		c-2.5,4.5-6.3,14.1-9.7,23.9c5.6,0,10.6,0.5,14.3,1.3C83.8,42.2,81.7,29.7,81.7,29.7z"/>
	<path class="st0" d="M157.3,72.5c0,2.7-1,5-6.9,5c-4.1,0-10.3-1-15.6-5.7c-5-4.4-8.1-9.5-10.2-14.1c0,7.8,0.2,15.3,0.8,20.9
		c0,0.2,0,0.5,0,0.7c0,2.8-1.6,3.9-3.6,3.9c-3.5,0-8.2-2.9-8.6-5.9c-0.9-7.3-1.2-17.5-1.2-27.8c0-10,0.3-20.3,0.7-28.3
		c-4-0.7-8.7-5.6-8.7-8.3c0-2.3,11.8-5.4,24.9-5.4c12.1,0,24.8,3.5,24.8,18c0,16.8-13.2,25.6-16.1,27c0.2,1.8,0.9,4.4,4.2,9.1
		c6.5,9.5,14.9,7.8,15.4,10.5C157.3,72.2,157.3,72.3,157.3,72.5z M127.4,19.9c-0.3,0-0.6,0-0.8,0c-0.8,8.7-1.5,20-1.8,30.9
		c4.5-2.2,14.6-9.2,14.6-22.5C139.2,23.4,134,19.9,127.4,19.9z"/>
	<path class="st0" d="M206.3,20.4c-0.9,0-1.9-0.1-2.8-0.1c-4.9,0-9,0.7-12.8,1.4c-0.6,6.1-1,16.5-1,23.2c0,7.6,0.2,27.2,1.4,35.7
		c0,1-3.7,2.4-7.7,2.4c-2.4,0-4.6-0.7-5-2.3c-2.9-10.7-3.8-27.8-3.8-38.4c0-6.5,0.3-12.2,0.8-16.9c-2.5,0.4-5.6,1.2-8.7,1.2
		c-5.3,0-9.3-5-9.3-9.2c0-1.5,0.6-2.8,1.9-3.1c13.9-3.4,24.5-6.9,37.5-6.9c2.7,0,5.5,0.1,8.5,0.5c2.1,0.3,2.8,3.2,2.8,6.2
		c0,0.4,0,0.7,0,1C208,18,207.1,20.4,206.3,20.4z"/>
	<path class="st0" d="M256.4,10.4c0,4.5-14,37.9-16.7,45c-0.2,3.5-0.2,6.8-0.2,10.1c0,5.4,0.2,10.6,0.8,15c0,1.1-4,2.4-7.9,2.4
		c-2.7,0-5.3-0.6-5.8-2.3c-1.8-6.7-2.7-16-2.9-25.6c-3.7-7-16.6-36.8-16.6-41.8c0-2.9,8.4-6.7,11.5-6.7c1,0,1.7,0.3,1.8,0.9
		c0.7,7.6,10.6,29.2,12,31.7c0,0,9.6-28.7,12.5-31.7c0.2-0.2,0.8-0.4,1.7-0.4c3,0,8.6,1.2,9.7,2.9C256.3,10,256.4,10.2,256.4,10.4z"
		/>
</g>
<g>
	<path class="st1" d="M58.9,105.5c0,10.9-7.3,26-9.2,27.2c-0.4,0.3-1,0.4-1.6,0.4c-3.9,0-11.2-4.6-11.2-7.5c0-0.4,0.1-0.8,0.4-1.2
		c3.4-3.7,11-15.2,11-18.5c0-0.6-0.3-1-0.8-1c-3,0-13.4,9.4-16.5,12.6c-5.4,5.4-9.2,11.3-9.2,14.1c0,1.8,0.9,2.4,12.5,3.2
		c11.5,0.8,19.9,5,19.9,13.5c0,10.8-9.2,20.1-23,20.1c-11.1,0-18.7-4.8-20.3-6.3c-0.8-0.7-1.6-3.5-1.6-5.6c0-1.4,0.5-3,2-3
		c0.3,0,0.6,0.1,1,0.3c3.3,1.4,8.7,2.5,14.8,2.5c9.1,0,18.2-4.8,18.2-8.2c-0.3-4.7-28.3,3.9-36.1-11.2c-0.5-1.1-0.8-2.4-0.8-3.9
		c0-6.7,5.2-16.9,12-23.6c6.9-6.6,18.3-15.2,28.1-15.2c1.8,0,3.6,0.3,5.2,0.9C57.5,96.6,58.9,100.6,58.9,105.5z"/>
	<path class="st1" d="M107.2,168.2c-2.6,0-4.9-0.4-5.9-1.3c-0.5-0.5-1.7-5.4-3.3-13.2c-4.1-0.9-10-1.7-14.9-1.7
		c-1.8,0-3.5,0.1-5.1,0.2c-2,6.4-3.6,11.7-4,14.5c-0.4,2.2-3.3,3-6.3,3c-3.7,0-6.4-1.2-6.4-3c0-2.1,1.2-7,3-13.4
		c-1.4,0-6.7-4.6-6.7-8.7c0-2.8,5.3-3,10.4-3.6C74,121.8,82.7,95.6,86,94c0.8-0.4,1.6-0.5,2.3-0.5c2.7,0,5,2,7.6,2
		c0.5,0,1.2-0.1,1.7-0.1c1,0,1.7,0.2,2.1,0.5c2.9,2.8,16.1,67.1,16.1,69.7C115.8,167.3,111.2,168.2,107.2,168.2z M91.3,117.2
		c-2.4,4.3-6,13.5-9.3,23c5.4,0,10.1,0.4,13.7,1.3C93.4,129.1,91.3,117.2,91.3,117.2z"/>
	<path class="st1" d="M165.9,100.3c0,6.9-15.3,60.8-19,64c-2.4,2.2-9.2,4.3-13.6,4.3c-1.3,0-2.4-0.3-3.1-0.7
		c-4.6-3.3-19.7-63.9-19.7-69.1c0-2,3.2-3.1,6.4-3.1c2.6,0,5.3,0.8,6.3,2.4c1.5,2.4,15.7,52.2,15.7,52.2s13.1-55.2,15.6-56
		c0.4-0.2,0.8-0.3,1.3-0.3c3.7,0,9.1,3.5,10.1,5.6C165.8,99.7,165.9,100,165.9,100.3z"/>
	<path class="st1" d="M211.3,150.1c0,1.3-0.4,2.9-1.3,3.9c-8.2,8.7-20.1,14.2-26.3,14.2c-4,0-11.3-4.2-11.8-6.4
		c-2.6-10-2.9-21.1-2.9-31.7c0-14.4,1.4-24.8,3.3-29.9c1.3-3.4,12.2-4,20.6-4c4.4,0,8.1,0.2,9.2,0.4c3.3,0.4,7.3,4.8,7.3,7.6
		c0,1-0.6,1.7-2.2,1.8c-5.1,0.3-18.6,1.7-22.7,3.6c-0.3,4-0.5,8.3-0.6,13.7c0.9,0.1,1.9,0.1,3,0.1c4.7,0,10.2-0.5,15.2-2.3
		c0.1,0,0.2,0,0.3,0c1,0,1.9,1.9,1.9,3.9c0,2-0.7,4.2-2.9,5.5c-5.7,3.4-12.8,5.2-17.7,6.2c0,4.8,0.4,13.3,0.6,19.1
		c8.2-0.7,20-6.1,25.1-9.5c0.1,0,0.1-0.1,0.2-0.1c0.3,0,0.6,0.3,0.9,0.6C210.9,147.3,211.3,148.7,211.3,150.1z"/>
	<path class="st1" d="M261.7,158.3c0,2.6-1,4.8-6.6,4.8c-3.9,0-9.9-1-15-5.5c-4.8-4.2-7.8-9.1-9.8-13.5c0,7.5,0.2,14.7,0.8,20.1
		c0,0.2,0,0.4,0,0.6c0,2.7-1.5,3.8-3.5,3.8c-3.3,0-7.9-2.8-8.2-5.6c-0.9-7-1.2-16.8-1.2-26.7c0-9.6,0.3-19.5,0.6-27.2
		c-3.9-0.7-8.3-5.4-8.3-8c0-2.2,11.3-5.2,23.9-5.2c11.7,0,23.9,3.4,23.9,17.3c0,16.1-12.6,24.6-15.4,25.9c0.2,1.7,0.9,4.2,4,8.7
		c6.3,9.1,14.3,7.5,14.8,10C261.7,157.9,261.7,158.1,261.7,158.3z M232.9,107.8c-0.3,0-0.5,0-0.8,0c-0.8,8.3-1.4,19.2-1.7,29.7
		c4.3-2.2,14-8.9,14-21.6C244.3,111.1,239.3,107.8,232.9,107.8z"/>
</g>
<g>
	<g>
		<g>
			<line class="st1" x1="106.3" y1="297.6" x2="135.2" y2="356.1"/>
			<line class="st2" x1="106.3" y1="297.6" x2="135.2" y2="356.1"/>
		</g>
		<g>
			<line class="st3" x1="135.2" y1="286.4" x2="135.2" y2="356.1"/>
			<line class="st4" x1="135.2" y1="286.4" x2="135.2" y2="356.1"/>
		</g>
		<g>
			<line class="st1" x1="163.7" y1="295.1" x2="135.2" y2="356.1"/>
			<line class="st2" x1="163.7" y1="295.1" x2="135.2" y2="356.1"/>
		</g>
		<g>
			<g>
				<g>
					<polygon class="st0" points="163.7,288.3 159.3,295.8 168,295.9 					"/>
				</g>
				<g>
					
						<ellipse transform="matrix(4.356711e-03 -1 1 4.356711e-03 -85.5758 411.5497)" class="st0" cx="163.9" cy="248.7" rx="41.6" ry="28.7"/>
				</g>
			</g>
		</g>
		<g>
			<g>
				<g>
					<polygon class="st1" points="135,278.9 130.6,286.4 139.2,286.4 					"/>
				</g>
				<g>
					
						<ellipse transform="matrix(6.137093e-03 -1 1 6.137093e-03 -105.0268 373.1419)" class="st1" cx="135.2" cy="239.4" rx="41.6" ry="28.6"/>
				</g>
			</g>
		</g>
		<g>
			<g>
				<g>
					<polygon class="st0" points="106.3,291.4 102,298.9 110.7,298.9 					"/>
				</g>
				<g>
					<ellipse class="st0" cx="106.3" cy="251.5" rx="28.9" ry="41.9"/>
				</g>
			</g>
		</g>
		<g>
			<circle class="st5" cx="135.2" cy="356.1" r="6.5"/>
			<circle class="st2" cx="135.2" cy="356.1" r="6.5"/>
		</g>
	</g>
</g>
</svg>
